<?xml version="1.0"?>
<svg width="640" height="480" xmlns="http://www.w3.org/2000/svg" xmlns:svg="http://www.w3.org/2000/svg">
 <!-- Created with SVG-edit - https://github.com/SVG-Edit/svgedit-->

 <g class="layer">
  <title>Layer 1</title>
  <path d="m212.70001,79.60001" fill="#FF0000" id="svg_7" opacity="0.5" stroke="#000000" stroke-width="5"/>
  <ellipse cx="300.5" cy="204.899994" fill="#25a364" id="svg_5" rx="260" ry="146" stroke="#000000" stroke-dasharray="null" stroke-linecap="null" stroke-linejoin="null" stroke-width="5"/>
  <path d="m233.5,119.899994l-61.5,4.100006l-16,37l1,113l18,15l57,0l0,-46l-32,6l-14,-94l48,-6l-0.5,-29.100006z" fill="#204172" id="svg_1" stroke="#000000" stroke-dasharray="null" stroke-linecap="null" stroke-linejoin="null" stroke-width="5"/>
  <path d="m234.5,290.899994l26.5,-160.899994l19,-19l28,-1l15,17l23,154c0,0 -34.5,3.899994 -35.5,2.899994c-1,-1 -6,-78 -6.5,-78.899994c-0.5,-0.899994 -21.5,-0.100006 -22,-1c-0.5,-0.899994 -15.5,81.899994 -16,81c-0.5,-0.899994 -31.5,5.899994 -31.5,5.899994z" fill="#456da5" id="svg_2" stroke="#000000" stroke-dasharray="null" stroke-linecap="null" stroke-linejoin="null" stroke-width="5"/>
  <path d="m289.5,152.899994l-9.5,27.100006l25,0l-3,-27l-12.5,-0.100006z" fill="#49cc7b" id="svg_3" stroke="#000000" stroke-dasharray="null" stroke-linecap="null" stroke-linejoin="null" stroke-width="5"/>
  <path d="m326.5,115.899994l32.5,163.100006l50,0l28,-170l-36,-1l-11,129l-17,-1l-15,-132l-31.5,11.899994z" fill="#9facce" id="svg_4" stroke="#000000" stroke-dasharray="null" stroke-linecap="null" stroke-linejoin="null" stroke-width="5"/>
 </g>
</svg>